<svg id="Layer_4" data-name="Layer 4" xmlns="http://www.w3.org/2000/svg" viewBox="0 0 510.48 431.35"><title>icon</title><path d="M424.71,149.6a23.57,23.57,0,0,0-4.5-27.44l-43-43a24.9,24.9,0,0,0-28-5.1l-9.58,7.63L81.73,339.51l-23,100.43,100.43-23L417,159.1ZM111.19,411.29a48.24,48.24,0,0,0-23.88-23.47L96.22,349,119,360.07l21,21,11,21-0.06.06Z" transform="translate(0 -71.77)"/><circle cx="22.49" cy="406.74" r="22.49"/><rect x="58.15" y="382.14" width="135.78" height="49.21"/><rect x="216.43" y="382.14" width="135.78" height="49.21"/><rect x="374.7" y="382.14" width="135.78" height="49.21"/></svg>