<?xml version="1.0" encoding="utf-8"?>
<!-- Generator: Adobe Illustrator 19.1.0, SVG Export Plug-In . SVG Version: 6.00 Build 0)  -->
<svg version="1.1" id="icon" xmlns="http://www.w3.org/2000/svg" xmlns:xlink="http://www.w3.org/1999/xlink" x="0px" y="0px"
	 viewBox="0 0 512 512" enable-background="new 0 0 512 512" xml:space="preserve">
<polygon points="412.8,0 372.2,0 0,103.9 0,115.2 "/>
<polygon points="512,387.8 512,0 446.3,0 0,124.5 0,512 67,512 "/>
<polygon points="100.5,512 139.8,512 512,408.1 512,397.2 "/>
<polygon fill="#FFFFFF" points="412.8,0 0,115.2 0,124.5 446.3,0 "/>
<polygon fill="#FFFFFF" points="653.3,357.8 650.9,349.1 647.8,350 649.8,358.7 "/>
<polygon fill="#FFFFFF" points="67,512 100.5,512 512,397.2 512,387.8 "/>
<g>
	<path fill="#FFFFFF" d="M80.7,175.9l45.8,62.3l-15.9,4.5l-9.7-14l-26,7.4l-1.1,17.1l-15.4,4.4l6.6-77.1L80.7,175.9z M93.7,218.3
		l-16-23.1l-0.2,0.1l-1.8,28.1L93.7,218.3z"/>
	<path fill="#FFFFFF" d="M158.5,153.8c4.5-1.3,8.9-1.7,13.1-1.4c4.3,0.3,8.2,1.5,11.9,3.6c3.6,2.1,6.9,5,9.7,8.8
		c2.8,3.8,5,8.7,6.7,14.4c1.4,5.1,2.1,9.9,2,14.6c-0.1,4.7-1,8.9-2.7,12.8c-1.7,3.9-4.3,7.3-7.8,10.2c-3.4,2.9-7.8,5.1-13.1,6.6
		l-30,8.5l-19.8-69.7L158.5,153.8z M173.5,210.9c2.2-0.6,4.3-1.6,6.1-2.9c1.9-1.3,3.4-3,4.5-5.1c1.2-2.1,1.8-4.7,2.1-7.6
		c0.2-2.9-0.2-6.3-1.3-10.2c-1-3.5-2.2-6.6-3.7-9.2c-1.5-2.6-3.3-4.7-5.4-6.3c-2.1-1.6-4.6-2.5-7.5-2.9c-2.9-0.3-6.2,0-10,1.1
		l-10.9,3.1l12.5,43.9L173.5,210.9z"/>
	<path fill="#FFFFFF" d="M237.9,131.2l29.9,43.3l0.2-0.1l1.8-52.3l21.6-6.1l19.8,69.7l-14.3,4.1l-14-49.4l-0.2,0.1l-3.1,54.2
		l-11.8,3.4l-31-44l-0.2,0.1l13.9,48.9l-14.3,4.1l-19.8-69.7L237.9,131.2z"/>
	<path fill="#FFFFFF" d="M335.8,103.4l19.8,69.7l-15.3,4.3l-19.8-69.7L335.8,103.4z"/>
	<path fill="#FFFFFF" d="M380,90.9l42.3,38.5l0.2-0.1l-13.3-46.7l14.3-4.1l19.8,69.7l-15.3,4.4l-42.2-38.4l-0.2,0.1l13.2,46.6
		l-14.3,4.1l-19.8-69.7L380,90.9z"/>
</g>
<g>
	<path fill="#FFFFFF" d="M223.1,348c3.5,12.5,0.5,23.3-9.2,32.5c-4.7,4.5-12,8.6-22.1,12.2c-2.8,0.9-11.1,3.3-24.9,7.3l-22.4,6.4
		c-2.1,0.6-3.3,0.4-3.6-0.7c-0.3-1,1.5-2.1,5.2-3.2c4.4-1.2,6.9-2.4,7.4-3.6c0.5-1.1,0.1-4-1.2-8.7l-28.2-99.2
		c-1.5-5.4-2.7-8.4-3.4-9.1c-1.3-1.2-4.6-1.1-10,0.3c-3.3,0.9-5.1,0.8-5.5-0.5c-0.3-1.2,1-2.2,4.1-3c0.1,0,0.9-0.2,2.2-0.6
		c1.4,0,2.7-0.2,3.8-0.5l35.7-10.2c13.2-3.6,23.7-4.2,31.4-1.8c9,2.9,14.9,9.1,17.6,18.6c2.4,8.3,1.2,16-3.5,23.1
		s-12.5,12.9-23.4,17.4l0.3,1.1c11.3-2.4,20.7-2.6,28-0.4C212.5,328.6,219.7,336.2,223.1,348z M180.5,291.7
		c-3.3-11.7-8.2-18.8-14.7-21.2c-3.4-1.3-9-0.8-16.8,1.4c-2.1,0.6-5.3,1.7-9.6,3.3l15.1,53.2l1.6-0.5l10-3.2
		c6.9-2.2,11.6-6.2,14.1-12C182.8,306.9,182.9,299.9,180.5,291.7z M203.2,351.5c-4.4-15.4-13.3-23.2-26.8-23.3
		c-4-0.1-10.9,1.3-20.8,4.1l15.5,54.6c1,3.5,1.9,5.5,2.8,5.7c1.5,0.5,5,0,10.6-1.6c8.4-2.4,14.4-7,17.9-13.8
		C205.9,370.4,206.2,361.8,203.2,351.5z"/>
	<path fill="#FFFFFF" d="M359.2,344.1c0.3,1-0.5,1.8-2.3,2.3c-1.2,0.3-2.3,0.6-3.4,0.8l-23.5,5.9l-23.1,7.3c-0.8,0.4-1.7,0.7-2.7,1
		c-2.4,0.7-3.8,0.4-4.2-0.9c-0.4-1.4,1-2.6,4.3-3.5c10.7-3.2,15.8-5.8,15.2-7.8c0-0.1-0.3-0.6-0.8-1.3l-2.9-4.4l-1.7-2.3
		c-2.2-3.5-7.2-11.1-15.2-22.8L260,329.4c-1.8,21.6-2.2,33.9-1.4,36.8c0.5,1.7,1.5,2.5,3.1,2.5c0.4,0,3.5-0.6,9.4-1.9
		c3.6-0.9,5.5-0.8,5.8,0.3c0.3,1.2-1.1,2.3-4.2,3.2c-5.6,1.6-12.2,3.2-19.8,4.8c-1.9,0.4-3.8,0.9-5.7,1.4c-2,0.6-3.8,1.3-5.5,2.2
		c-0.9,0.5-1.7,0.8-2.3,1c-1.7,0.5-2.7,0.2-3-0.9c-0.3-1.1,1.4-2.3,5.3-3.5c3.8-1.2,6.4-2.6,7.8-4.1c1.4-1.5,2.2-3.9,2.3-7.1
		c2.9-49.6,5.4-89.5,7.5-119.6c-0.1-1.5,0-3.3,0.3-5.4l-0.2-3.6c0-1.4,0.3-2.3,0.9-2.4c0.4-0.1,0.8,0.2,1.2,0.8
		c2.9,4.3,9.4,13.3,19.3,26.8c7.8,10.6,27.2,37.3,58.2,80c1.8,2.5,3.5,3.9,5.3,4.2c1.7,0.3,5-0.1,9.8-1.4
		C357.2,342.9,358.9,343.1,359.2,344.1z M296.9,314.4c-3.5-4.9-9.4-13.1-17.6-24.5l-16-22.9c-1.3,15-2.4,34.3-3.5,57.9L296.9,314.4z
		"/>
	<path fill="#FFFFFF" d="M458.6,311.2c1.5,5.1-2.1,8.9-10.6,11.3c-9.5,2.7-18.1,0.9-25.7-5.6c-3.3-2.8-5.7-5.6-7.3-8.6
		c-1.6-3-4.9-10.8-9.9-23.3c-3-7.6-7-12.4-12.2-14.5c-5.2-2-12.7-1.8-22.4,0.7l16.4,57.7c0.7,2.4,3.1,3.4,7.2,2.9
		c1.1-0.2,4-0.9,8.5-2c1.6-0.5,2.5-0.2,2.8,0.8c0.3,1.1-0.6,1.9-2.6,2.5l-2.2,0.6c-1.1,0.3-6.4,1.8-15.9,4.5
		c-1.8,0.5-4.9,1.4-9.3,2.7c-4.3,1.2-7.1,2-8.4,2.4l-7.1,2c-2.7,0.8-4.2,0.6-4.5-0.5c-0.2-0.9,1.4-1.8,4.9-3
		c5.7-1.8,8.6-3.4,8.7-4.9c0.3-0.7-0.1-3.2-1.3-7.4l-28.7-101.2c-1.4-4.9-2.7-7.7-4.1-8.4c-1.3-0.7-4.6-0.3-9.9,1
		c-3.1,0.9-4.7,0.8-5.1-0.3c-0.3-1.2,0.5-2.1,2.4-2.7c0.4-0.1,0.9-0.2,1.7-0.3l24.5-6.4c2.4-0.7,5.8-1.7,10.2-3.2
		c4.8-1.7,8.2-2.8,10.1-3.4c11.4-3.2,21.1-3.2,29.2-0.1c8.1,3.2,13.4,9.1,15.8,17.8c2.4,8.6,1,16.6-4.3,24.1
		c-5.3,7.5-13.6,13.4-25.1,17.7c-1.1,0.4-1.6,0.8-1.7,1.1c0.1,0.5,0.8,0.6,2,0.2c13.5-1.4,23.6,0.6,30.3,6
		c6.8,5.4,13.5,16.8,20.1,34.1c3.8,9.8,8.7,13.8,14.5,12.2c1.8-0.5,2.6-1.1,2.4-1.9c0-0.1-0.1-0.2-0.3-0.3c-1-1.2-1.6-2.2-1.9-3
		c-0.7-2.6,0.2-4.2,2.9-5C455.9,307,457.8,308.2,458.6,311.2z M394.6,230.2c-5-17.5-15-24.1-30.2-19.8c-4,1.1-6.6,2.5-7.8,4
		c-1.2,1.5-1.3,3.7-0.5,6.5l13.2,46.6c11.8-3.2,19.6-7.8,23.6-13.6C396.9,247.9,397.4,240,394.6,230.2z"/>
</g>
<g>
	<g>
		<path fill="#FFFFFF" d="M154.3,446.7c0.5,1.7,0.2,3.4-0.7,4.9s-2.4,2.6-4.2,3.1c-1.1,0.3-2.5,0.3-4.1,0.1c-0.4-0.1-0.8-0.1-1,0
			c-0.2,0.1-0.3,0.4-0.2,1c0.1,0.3,0,0.5-0.3,0.5c-0.2,0.1-0.3,0-0.4-0.3c0-0.2-0.1-0.3-0.1-0.4c-0.2-1.3-0.4-2.4-0.7-3.4
			c-0.1-0.2-0.2-0.8-0.5-1.7c-0.1-0.1-0.1-0.3-0.2-0.5c-0.1-0.3,0-0.5,0.2-0.5c0.2-0.1,0.4,0.1,0.6,0.6c1.5,3.4,3.7,4.8,6.5,4
			c1.2-0.3,2.1-0.9,2.5-1.8c0.5-0.9,0.5-1.9,0.2-3.2c-0.3-1.1-0.9-2-1.8-2.6c-0.9-0.6-2.2-1.1-4-1.4c-2.2-0.4-3.7-0.9-4.7-1.6
			c-1-0.7-1.7-1.7-2-2.9c-0.5-1.7-0.3-3.2,0.5-4.5c0.8-1.4,2-2.3,3.6-2.7c0.7-0.2,1.7-0.2,3-0.1c0.5,0,0.8,0,1,0
			c0.2-0.1,0.4-0.1,0.4-0.2c0-0.1,0.1-0.3,0-0.7c0-0.2,0.1-0.3,0.2-0.4c0.2-0.1,0.3,0,0.4,0.3c0,0.2,0.1,0.3,0.1,0.4
			c0.1,0.5,0.2,1.1,0.4,1.8c0.3,1,0.5,1.7,0.8,2.2l0.2,0.5c0.1,0.2,0,0.3-0.2,0.4c-0.2,0.1-0.4-0.1-0.6-0.6
			c-0.5-1.1-1.3-1.9-2.4-2.5c-1-0.6-2.1-0.7-3.1-0.4c-1,0.3-1.7,0.8-2.1,1.6c-0.4,0.8-0.5,1.8-0.2,2.8c0.4,1.3,1.1,2.2,2.1,2.7
			c0.6,0.3,1.8,0.6,3.6,1c2.1,0.4,3.7,1,4.8,1.7S153.9,445.5,154.3,446.7z"/>
		<path fill="#FFFFFF" d="M172.5,447.7c0,0.1-0.2,0.3-0.8,0.5c0,0-0.1,0-0.3,0.1c-0.2,0-0.3,0.1-0.5,0.1l-2.2,0.6
			c-0.3,0.1-0.6,0.2-0.7,0.2l-0.5,0.1c-0.4,0.1-0.7,0.1-0.7,0c0-0.1,0.1-0.2,0.4-0.3c0.6-0.2,1-0.4,1-0.6c0-0.1-0.1-0.4-0.2-1
			l-1.5-5.5l-5.6,1.6l1.7,6.2c0.1,0.2,0.2,0.3,0.4,0.3c0.1,0,0.5,0,1-0.2c0.2-0.1,0.3,0,0.4,0.1c0,0.1-0.1,0.3-0.5,0.4l-0.5,0.1
			c-0.3,0.1-0.7,0.2-1.2,0.3l-2.9,0.8c-0.3,0.1-0.5,0.1-0.5-0.1c0-0.1,0.2-0.3,0.8-0.5c0.4-0.1,0.6-0.3,0.6-0.6l-3.1-11.2
			c-0.2-0.6-0.2-0.9-0.3-0.9c-0.1-0.2-0.3-0.2-0.6-0.1c-0.7,0.2-1,0.2-1.1,0c0-0.1,0.1-0.2,0.4-0.3l0.2-0.1c0.4-0.1,0.8-0.2,1.2-0.3
			c0.4-0.1,0.7-0.2,0.8-0.2c0.2-0.1,0.6-0.2,1.2-0.3c0.6-0.2,0.9-0.3,1-0.3l0.2-0.1c0.3-0.1,0.5-0.1,0.6,0.1c0,0.2-0.2,0.3-0.7,0.5
			c-0.3,0.1-0.5,0.2-0.6,0.3c-0.1,0.1-0.1,0.3,0,0.6l1.3,4.7l5.6-1.6l-1.1-4.1c-0.2-0.6-0.3-1-0.4-1c-0.1-0.2-0.3-0.3-0.7-0.1
			l-0.6,0.2c-0.3,0-0.4,0-0.5-0.1c0-0.2,0.1-0.3,0.6-0.4l0.6-0.2c0.2-0.1,0.6-0.2,1.2-0.3c0.5-0.2,0.9-0.3,1.2-0.3
			c0.5-0.1,0.8-0.2,1-0.3l0.4-0.1c0.5-0.1,0.7-0.1,0.8,0c0,0.2-0.1,0.3-0.3,0.4c-0.3,0.1-0.5,0.1-0.7,0.2c-0.3,0.1-0.4,0.2-0.4,0.3
			c0,0.1,0.1,0.4,0.2,1l2.9,10.3c0.2,0.7,0.3,1,0.5,1.1c0.1,0,0.5,0,1.1-0.2C172.3,447.5,172.5,447.5,172.5,447.7z"/>
		<path fill="#FFFFFF" d="M186.8,436.7c0.5,1.9,0.4,3.7-0.5,5.4c-0.9,1.7-2.2,2.8-4,3.3c-1.9,0.5-3.7,0.3-5.5-0.7
			c-1.7-1-2.8-2.5-3.4-4.4c-0.6-2-0.4-3.9,0.5-5.5c0.9-1.7,2.3-2.8,4.3-3.3c1.9-0.5,3.6-0.3,5.3,0.7
			C185.1,433.2,186.2,434.7,186.8,436.7z M184,437.6c-0.6-2.3-1.6-4-2.9-5.1c-0.8-0.7-1.8-0.9-2.8-0.6c-1.5,0.4-2.3,1.5-2.5,3.3
			c-0.1,1.2,0,2.7,0.5,4.4c0.6,2,1.4,3.5,2.4,4.5c1,1,2.2,1.3,3.5,0.9C184.6,444.3,185.2,441.9,184,437.6z"/>
		<path fill="#FFFFFF" d="M203.7,438.4c0.2,0.6-0.3,1.1-1.4,1.4c-1.1,0.3-2.1,0.1-3-0.5c-0.4-0.3-0.7-0.6-0.9-0.9
			c-0.2-0.3-0.6-1.1-1.1-2.4c-0.3-0.8-0.8-1.3-1.3-1.6c-0.5-0.2-1.4-0.2-2.5,0.1l1.7,6.2c0,0.3,0.6,0.3,1.6,0c0.2-0.1,0.3,0,0.4,0.1
			s-0.1,0.2-0.4,0.3c-0.2,0.1-0.4,0.1-0.6,0.2l-1,0.3c-0.4,0.1-1,0.3-1.6,0.4c-0.6,0.2-0.9,0.3-1,0.3l-0.6,0.2
			c-0.6,0.2-0.9,0.2-0.9,0c0-0.1,0-0.3,0.2-0.3c0.1,0,0.2,0,0.3-0.1l0.1,0c0.7-0.2,1-0.4,0.9-0.7l-3.3-11.8
			c-0.1-0.2-0.2-0.3-0.3-0.4c-0.1,0-0.4,0-0.9,0.1c-0.5,0.1-0.7,0.1-0.8,0c0-0.1,0.1-0.2,0.4-0.3l0.2-0.1c0.3-0.1,1.3-0.4,2.8-0.8
			c0.7-0.2,1.2-0.3,1.6-0.4c0.4-0.1,0.7-0.2,1-0.3c1.3-0.4,2.5-0.4,3.4-0.1s1.6,0.9,1.8,1.8c0.3,1,0.1,1.9-0.6,2.7
			c-0.7,0.8-1.8,1.5-3.3,2.1c1.7-0.3,3-0.2,3.8,0.3c0.8,0.5,1.6,1.7,2.3,3.4c0.5,1.2,1,1.7,1.6,1.5c0.1,0,0.1-0.1,0.1-0.1
			c0,0,0-0.1-0.1-0.2s-0.1-0.2-0.1-0.2c-0.1-0.4,0-0.6,0.4-0.7C203.3,437.9,203.6,438,203.7,438.4z M196.3,430.1
			c-0.5-1.8-1.6-2.4-3.4-1.9c-0.5,0.1-0.7,0.2-0.8,0.4c-0.1,0.1-0.1,0.3,0,0.7l1.4,4.9C195.9,433.4,196.9,432.1,196.3,430.1z"/>
		<path fill="#FFFFFF" d="M214.5,425.5c0.1,0.3,0,0.4-0.2,0.5c-0.3,0.1-0.4-0.1-0.6-0.4c-0.3-0.8-0.6-1.4-1-1.8
			c-0.6-0.6-1.5-0.7-2.9-0.3c-0.2,0.1-0.5,0.2-0.9,0.3l3.3,12c0.1,0.4,0.4,0.5,1,0.4c0.6-0.1,0.9-0.1,0.9,0c0,0.1-0.1,0.3-0.4,0.4
			l-0.2,0.1c-0.2,0-0.5,0.1-0.8,0.2c-0.4,0.1-0.6,0.2-0.8,0.2c0,0-0.3,0.1-0.7,0.2c-0.4,0.1-1,0.3-1.6,0.4l-0.7,0.2
			c-0.4,0.1-0.6,0.1-0.7,0c0-0.1,0.3-0.3,0.9-0.5c0.2-0.1,0.4-0.1,0.5-0.2c0.1-0.1,0.2-0.2,0.2-0.4c0-0.2-0.2-0.7-0.4-1.5l-3-10.7
			c-1.6,0.4-2.5,0.9-2.9,1.3c-0.4,0.5-0.5,1.3-0.3,2.6c0.1,0.5,0,0.7-0.2,0.8c-0.2,0-0.3-0.2-0.5-0.6c-0.2-0.6-0.4-1.7-0.7-3.4
			l7-1.9c0.6-0.2,1.9-0.5,3.7-1.1c0.2,0,0.4-0.1,0.6-0.3l0.2,0.6l0.4,1l0.4,1.2l0.2,0.5C214.4,425.3,214.5,425.4,214.5,425.5z"/>
		<path fill="#FFFFFF" d="M230.3,427c0,0.1,0.1,0.2,0.1,0.5c0.2,1.1,0.4,1.9,0.5,2.3c0.1,0.3,0.2,0.7,0.5,1.3l0.1,0.2
			c0.1,0.2,0,0.3-0.2,0.4c-0.2,0-0.4-0.1-0.6-0.4l-0.4-0.5c0,0-0.1-0.1-0.1-0.2c-0.7,1.1-1.8,1.9-3.3,2.3c-2,0.6-3.9,0.4-5.6-0.6
			c-1.7-1-2.8-2.5-3.4-4.5c-0.6-2-0.4-3.9,0.5-5.5c0.9-1.6,2.3-2.7,4.2-3.3c1.5-0.4,2.9-0.4,4.1,0.1c0.1,0.1,0.2,0.1,0.3,0.1
			c0.1,0,0.2-0.2,0.2-0.5c0-0.5,0.1-0.7,0.3-0.8c0.1,0,0.2,0,0.3,0.2c0,0,0,0.1,0,0.3c0.1,0.7,0.3,1.7,0.6,3.1
			c0.2,0.8,0.2,1.3,0,1.3c-0.2,0-0.3-0.1-0.5-0.4c-0.5-1-1-1.7-1.4-2.2c-1-0.9-2.2-1.2-3.6-0.8c-1.2,0.3-2,1.2-2.4,2.6
			c-0.4,1.4-0.3,3,0.2,5c0.6,2,1.4,3.5,2.5,4.4c1.1,0.9,2.4,1.2,3.7,0.9c1-0.3,1.8-0.9,2.3-1.8c0.5-0.9,0.7-2,0.5-3.3
			c0-0.5,0-0.8,0.2-0.9C230.1,426.5,230.2,426.6,230.3,427z"/>
		<path fill="#FFFFFF" d="M244,413.6c0,0.1-0.1,0.3-0.4,0.3l-0.1,0c-0.2,0.1-0.4,0.1-0.6,0.2c-0.3,0.1-0.4,0.3-0.3,0.7l1.5,5.5
			c0.5,1.9,0.8,3.2,0.9,3.7c0.1,0.6,0,1.2-0.2,1.8c-0.4,1.5-1.6,2.5-3.6,3c-1.6,0.5-3,0.4-4.2,0c-1.1-0.4-1.9-1.7-2.5-3.6l-1.8-6.3
			c-0.3-1.1-0.5-1.6-0.6-1.7c-0.1-0.1-0.4,0-0.9,0.1c-0.4,0.1-0.6,0.1-0.7-0.1c0-0.1,0.1-0.2,0.4-0.3l0.4-0.1c0.1,0,0.3-0.1,0.5-0.1
			c0.2-0.1,0.3-0.1,0.4-0.1l2.5-0.7c0.1,0,0.3-0.1,0.5-0.1c0.2,0,0.3-0.1,0.3-0.1c0.4-0.1,0.6-0.1,0.6,0.1c0.1,0.2-0.3,0.4-1,0.6
			c-0.2,0.1-0.3,0.1-0.4,0.2c0,0.1,0,0.3,0.1,0.7l2,7.1c0.5,1.9,1.1,3.1,1.8,3.6c0.7,0.5,1.7,0.6,2.8,0.3c1.5-0.4,2.4-1.4,2.6-2.8
			c0.1-0.7,0-1.8-0.4-3.2c0,0,0-0.1-0.1-0.3c-0.1-0.2-0.1-0.4-0.2-0.7l-1.7-6.2c-0.1-0.3-0.2-0.4-0.3-0.4c-0.1,0-0.4,0-0.9,0.1
			s-0.7,0.1-0.8-0.1c0-0.1,0.1-0.2,0.3-0.3c0.1,0,0.2-0.1,0.3-0.1l1.4-0.4c0,0,0.1,0,0.3-0.1c0.2-0.1,0.5-0.1,1-0.3l0.4-0.1
			C243.7,413.4,243.9,413.5,244,413.6z"/>
		<path fill="#FFFFFF" d="M258.8,413.2c0.1,0.3,0,0.4-0.2,0.5c-0.3,0.1-0.4-0.1-0.6-0.4c-0.3-0.8-0.6-1.4-1-1.8
			c-0.6-0.6-1.5-0.7-2.9-0.3c-0.2,0.1-0.5,0.2-0.9,0.3l3.3,12c0.1,0.4,0.4,0.5,1,0.4c0.6-0.1,0.9-0.1,0.9,0c0,0.1-0.1,0.3-0.4,0.4
			l-0.2,0.1c-0.2,0-0.5,0.1-0.8,0.2c-0.4,0.1-0.6,0.2-0.8,0.2c0,0-0.3,0.1-0.7,0.2c-0.4,0.1-1,0.3-1.6,0.4l-0.7,0.2
			c-0.4,0.1-0.6,0.1-0.7,0c0-0.1,0.3-0.3,0.9-0.5c0.2-0.1,0.4-0.1,0.5-0.2c0.1-0.1,0.2-0.2,0.2-0.4c0-0.2-0.2-0.7-0.4-1.5l-3-10.7
			c-1.6,0.4-2.5,0.9-2.9,1.3c-0.4,0.5-0.5,1.3-0.3,2.6c0.1,0.5,0,0.7-0.2,0.8c-0.2,0-0.3-0.2-0.5-0.6c-0.2-0.6-0.4-1.7-0.7-3.4
			l7-1.9c0.6-0.2,1.9-0.5,3.7-1.1c0.2,0,0.4-0.1,0.6-0.3l0.2,0.6l0.4,1l0.4,1.2l0.2,0.5C258.7,413,258.8,413.1,258.8,413.2z"/>
		<path fill="#FFFFFF" d="M272.2,416c0.3,1.1,0.1,2.2-0.6,3.3c-0.7,1.1-1.8,1.8-3.1,2.2c-1,0.3-2.1,0.3-3.4-0.1c-0.1,0-0.2,0-0.3,0
			c-0.1,0-0.2,0.1-0.1,0.3c0,0.2,0,0.4,0,0.5c0,0.2-0.1,0.2-0.2,0.3c-0.2,0.1-0.3,0-0.4-0.2c0,0-0.1-0.3-0.2-0.9
			c-0.1-0.6-0.2-1.1-0.3-1.5c0-0.2-0.1-0.4-0.2-0.8c-0.1-0.3-0.2-0.6-0.2-0.8c-0.1-0.4-0.1-0.6,0.1-0.7s0.4,0.2,0.7,0.8
			c1,2.1,2.5,2.9,4.4,2.3c1.7-0.5,2.3-1.5,1.8-3.2c-0.2-0.7-0.6-1.3-1.1-1.6c-0.5-0.3-1.4-0.6-2.8-0.9c-1.7-0.3-2.9-0.7-3.4-1
			c-0.7-0.4-1.2-1.1-1.4-1.9c-0.3-1.1-0.2-2.1,0.4-3c0.6-0.9,1.5-1.6,2.7-1.9c0.8-0.2,1.6-0.2,2.6,0c0.1,0,0.2,0,0.3,0
			c0.1,0,0.2-0.2,0.1-0.5c0-0.3,0-0.5,0.2-0.5c0.2-0.1,0.3,0,0.4,0.2c0,0,0,0.1,0,0.2c0,0.3,0.1,0.7,0.3,1.2
			c0.1,0.3,0.3,0.8,0.5,1.6c0,0.1,0.1,0.2,0.1,0.3c0.1,0.2,0,0.4-0.1,0.4c-0.2,0-0.4-0.1-0.5-0.4c-0.4-0.8-1-1.4-1.7-1.8
			c-0.7-0.4-1.4-0.5-2.1-0.2c-1.4,0.4-1.9,1.4-1.5,2.9c0.2,0.7,0.5,1.2,1,1.5c0.3,0.2,0.5,0.3,0.8,0.4c0.3,0.1,1.1,0.2,2.4,0.5
			c1.5,0.3,2.6,0.6,3.3,1.1C271.5,414.6,272,415.2,272.2,416z"/>
		<path fill="#FFFFFF" d="M290.7,404.3c0.1,0.3,0,0.4-0.1,0.4c-0.2,0.1-0.4-0.1-0.5-0.5c-0.4-1-0.9-1.7-1.5-2
			c-0.6-0.3-1.7-0.2-3.5,0.2c-0.5,0.1-1.2,0.3-2,0.6l1.6,5.7l0.7-0.2c1.3-0.4,2.1-0.7,2.3-1c0.2-0.3,0.2-1.1,0-2.3
			c-0.1-0.3,0-0.4,0.2-0.5c0.2-0.1,0.3,0.1,0.4,0.4c0,0.2,0.1,0.4,0.2,0.7s0.2,1,0.5,2c0,0.2,0.1,0.5,0.3,0.9
			c0.1,0.4,0.3,0.9,0.5,1.6l0,0.1c0.1,0.4,0,0.6-0.2,0.7c-0.2,0-0.3-0.1-0.4-0.4c-0.5-1.2-0.9-1.8-1.2-2c-0.3-0.2-1-0.1-2.2,0.3
			l-0.9,0.3l1.6,5.8c0.1,0.4,0.3,0.6,0.6,0.6c0.1,0,0.4-0.1,0.9-0.2c0.3-0.1,0.4,0,0.5,0.1c0,0.1-0.1,0.2-0.3,0.3l-0.4,0.1
			c-0.1,0-0.4,0.1-0.7,0.2c-0.3,0.1-0.6,0.2-0.7,0.2l-2.3,0.6c-0.2,0.1-0.4,0.1-0.6,0.2c-0.2,0.1-0.3,0.1-0.3,0.1
			c-0.3,0.1-0.5,0.1-0.6-0.1c0-0.2,0.1-0.3,0.4-0.4c0.6-0.2,1-0.3,1-0.4c0.1-0.1,0-0.4-0.1-1l-2.9-10.5c-0.1-0.5-0.3-0.8-0.4-0.9
			c-0.1-0.1-0.5,0-1.1,0.1c-0.3,0.1-0.4,0-0.5-0.2c0-0.2,0.1-0.3,0.6-0.4l5.7-1.6c2.1-0.6,3.5-1,4.2-1.3l0.1,0.3l0.5,1.3l0.6,1.5
			C290.6,404.1,290.7,404.3,290.7,404.3z"/>
		<path fill="#FFFFFF" d="M307.4,403.1c0.5,1.9,0.4,3.7-0.5,5.4c-0.9,1.7-2.2,2.8-4,3.3c-1.9,0.5-3.7,0.3-5.5-0.7
			c-1.7-1-2.8-2.5-3.4-4.4c-0.6-2-0.4-3.9,0.5-5.5c0.9-1.7,2.3-2.8,4.3-3.3c1.9-0.5,3.6-0.3,5.3,0.7
			C305.7,399.6,306.8,401.1,307.4,403.1z M304.6,404c-0.6-2.3-1.6-4-2.9-5.1c-0.8-0.7-1.8-0.9-2.8-0.6c-1.5,0.4-2.3,1.5-2.5,3.3
			c-0.1,1.2,0,2.7,0.5,4.4c0.6,2,1.4,3.5,2.4,4.5c1,1,2.2,1.3,3.5,0.9C305.1,410.8,305.8,408.3,304.6,404z"/>
		<path fill="#FFFFFF" d="M324.3,404.8c0.2,0.6-0.3,1.1-1.4,1.4c-1.1,0.3-2.1,0.1-3-0.5c-0.4-0.3-0.7-0.6-0.9-0.9
			c-0.2-0.3-0.6-1.1-1.1-2.4c-0.3-0.8-0.8-1.3-1.3-1.6s-1.4-0.2-2.5,0.1l1.7,6.2c0,0.3,0.6,0.3,1.6,0c0.2-0.1,0.3,0,0.4,0.1
			c0,0.1-0.1,0.2-0.4,0.3c-0.2,0.1-0.4,0.1-0.6,0.2l-1,0.3c-0.4,0.1-1,0.3-1.6,0.4c-0.6,0.2-0.9,0.3-1,0.3l-0.6,0.2
			c-0.6,0.2-0.9,0.2-0.9,0c0-0.1,0-0.3,0.2-0.3c0.1,0,0.2,0,0.3-0.1l0.1,0c0.7-0.2,1-0.4,0.9-0.7l-3.3-11.8
			c-0.1-0.2-0.2-0.3-0.3-0.4c-0.1,0-0.4,0-0.9,0.1c-0.5,0.1-0.7,0.1-0.8,0c0-0.1,0.1-0.2,0.4-0.3l0.2-0.1c0.3-0.1,1.3-0.4,2.8-0.8
			c0.7-0.2,1.2-0.3,1.6-0.4s0.7-0.2,1-0.3c1.3-0.4,2.5-0.4,3.4-0.1c1,0.3,1.6,0.9,1.8,1.8c0.3,1,0.1,1.9-0.6,2.7
			c-0.7,0.8-1.8,1.5-3.3,2.1c1.7-0.3,3-0.2,3.8,0.3c0.8,0.5,1.6,1.7,2.3,3.4c0.5,1.2,1,1.7,1.6,1.5c0.1,0,0.1-0.1,0.1-0.1
			c0,0,0-0.1-0.1-0.2c-0.1-0.1-0.1-0.2-0.1-0.2c-0.1-0.4,0-0.6,0.4-0.7C323.9,404.3,324.2,404.4,324.3,404.8z M316.9,396.5
			c-0.5-1.8-1.6-2.4-3.4-1.9c-0.5,0.1-0.7,0.2-0.8,0.4c-0.1,0.1-0.1,0.3,0,0.7l1.4,4.9C316.5,399.8,317.4,398.5,316.9,396.5z"/>
		<path fill="#FFFFFF" d="M348.6,391.7c0,0,0,0.3,0.2,0.8c0.2,1.1,0.5,2.3,0.8,3.4c0,0.1,0.1,0.4,0.3,0.7c0.1,0.4,0.3,0.8,0.4,1.3
			l0.1,0.3c0.1,0.3,0,0.4-0.1,0.5c-0.2,0-0.3-0.1-0.5-0.3c-0.5-0.6-0.9-1-1.2-1.1c-1.1,1.7-2.6,2.8-4.6,3.3c-2.9,0.8-5.6,0.5-8.1-1
			c-2.5-1.5-4.2-3.8-5-6.9c-0.9-3.1-0.7-5.9,0.5-8.4c1.2-2.5,3.2-4.1,6-4.9c1-0.3,1.8-0.4,2.5-0.4c0.7,0,1.5,0.1,2.5,0.4
			c0.5,0.1,0.9,0.2,1.1,0.1c0.2,0,0.3-0.3,0.4-0.6c0.1-0.6,0.2-1,0.4-1c0.2,0,0.3,0,0.3,0.2c0,0.1,0,0.2,0,0.4c0,1,0.4,2.8,1.2,5.5
			c0.1,0.4,0.1,0.6,0.1,0.7c0,0.1-0.1,0.1-0.2,0.2c-0.2,0.1-0.4-0.1-0.5-0.5c-0.7-1.5-1.4-2.6-2.1-3.2c-1.4-1.3-3.2-1.7-5.3-1.1
			c-1.6,0.4-2.7,1.3-3.4,2.7c-1.2,2.4-1.2,5.5-0.2,9.2c0.9,3.3,2.3,5.7,4.2,7.2c1.7,1.3,3.5,1.6,5.5,1c1-0.3,1.9-0.8,2.6-1.6
			c0.7-0.8,1.2-1.7,1.4-2.7c0.2-1,0.3-2.2,0.2-3.6c0-0.5,0-0.8,0.2-0.8C348.4,391.2,348.5,391.4,348.6,391.7z"/>
		<path fill="#FFFFFF" d="M366,393.2c0.2,0.6-0.3,1.1-1.4,1.4c-1.1,0.3-2.1,0.1-3-0.5c-0.4-0.3-0.7-0.6-0.9-0.9
			c-0.2-0.3-0.6-1.1-1.1-2.4c-0.3-0.8-0.8-1.3-1.3-1.6c-0.5-0.2-1.4-0.2-2.5,0.1l1.7,6.2c0,0.3,0.6,0.3,1.6,0c0.2-0.1,0.3,0,0.4,0.1
			c0,0.1-0.1,0.2-0.4,0.3c-0.2,0.1-0.4,0.1-0.6,0.2l-1,0.3c-0.4,0.1-1,0.3-1.6,0.4c-0.6,0.2-0.9,0.3-1,0.3l-0.6,0.2
			c-0.6,0.2-0.9,0.2-0.9,0c0-0.1,0-0.3,0.2-0.3c0.1,0,0.2,0,0.3-0.1l0.1,0c0.7-0.2,1-0.4,0.9-0.7l-3.3-11.8
			c-0.1-0.2-0.2-0.3-0.3-0.4c-0.1,0-0.4,0-0.9,0.1c-0.5,0.1-0.7,0.1-0.8,0c0-0.1,0.1-0.2,0.4-0.3l0.2-0.1c0.3-0.1,1.3-0.4,2.8-0.8
			c0.7-0.2,1.2-0.3,1.6-0.4c0.4-0.1,0.7-0.2,1-0.3c1.3-0.4,2.5-0.4,3.4-0.1c1,0.3,1.6,0.9,1.8,1.8c0.3,1,0.1,1.9-0.6,2.7
			c-0.7,0.8-1.8,1.5-3.3,2.1c1.7-0.3,3-0.2,3.8,0.3c0.8,0.5,1.6,1.7,2.3,3.4c0.5,1.2,1,1.7,1.6,1.5c0.1,0,0.1-0.1,0.1-0.1
			c0,0,0-0.1-0.1-0.2c-0.1-0.1-0.1-0.2-0.1-0.2c-0.1-0.4,0-0.6,0.4-0.7C365.6,392.7,365.8,392.8,366,393.2z M358.6,384.9
			c-0.5-1.8-1.6-2.4-3.4-1.9c-0.5,0.1-0.7,0.2-0.8,0.4c-0.1,0.1-0.1,0.3,0,0.7l1.4,4.9C358.2,388.2,359.1,386.9,358.6,384.9z"/>
		<path fill="#FFFFFF" d="M381.2,389.6c0,0.1-0.1,0.2-0.5,0.3l-0.2,0.1l-1.9,0.5l-0.8,0.2c-0.3,0.1-0.8,0.2-1.4,0.4l-0.9,0.2
			l-0.5,0.1l-0.1,0c-0.4,0.1-0.6,0.1-0.6-0.1c0-0.2,0.3-0.3,1-0.6c0.9-0.3,1.3-0.5,1.2-0.7c0,0-0.1-0.2-0.3-0.5
			c-0.1-0.1-0.5-0.7-1.2-1.8l-0.6-0.9l-4.3,1.2c-0.2,2.3-0.3,3.6-0.2,3.9c0,0.2,0.2,0.2,0.4,0.2l0.4-0.1l0.4-0.1l0.3,0
			c0.2-0.1,0.4,0,0.4,0.1c0,0.1-0.2,0.3-0.6,0.4c-0.1,0-0.4,0.1-1.1,0.3c-0.7,0.1-1.2,0.3-1.7,0.4l-0.3,0.1l-0.3,0.1l-0.3,0.1
			l-0.1,0c-0.3,0.1-0.5,0.1-0.5,0c0-0.1,0.1-0.3,0.3-0.3c0.4-0.1,0.6-0.2,0.7-0.3c0.3-0.2,0.5-0.3,0.6-0.5c0.1-0.1,0.3-1.4,0.5-3.8
			c0.1-1,0.2-1.9,0.3-2.8c0-0.3,0.1-0.5,0.1-0.7c0-0.2,0-0.4,0.1-0.7c0.1-0.9,0.2-2.3,0.4-4.1l0.1-1.4l0.1-0.6
			c0-0.3,0.1-0.5,0.2-0.5c0.1,0,0.3,0.2,0.6,0.7c1,1.3,3.6,4.7,7.8,10.2c0.4,0.6,0.7,0.8,1,0.8c0.1,0,0.4-0.1,1-0.2
			C380.9,389.5,381.1,389.5,381.2,389.6z M373.8,386.6l-3.3-4.6c-0.2,1.3-0.3,3.2-0.6,5.7L373.8,386.6z"/>
		<path fill="#FFFFFF" d="M390.3,376.5c0.1,0.3,0,0.4-0.1,0.4c-0.2,0.1-0.4-0.1-0.5-0.5c-0.4-1-0.9-1.7-1.5-2
			c-0.6-0.3-1.7-0.2-3.5,0.2c-0.5,0.1-1.2,0.3-2,0.6l1.6,5.7l0.7-0.2c1.3-0.4,2.1-0.7,2.3-1c0.2-0.3,0.2-1.1,0-2.3
			c-0.1-0.3,0-0.4,0.2-0.5c0.2-0.1,0.3,0.1,0.4,0.4c0,0.2,0.1,0.4,0.2,0.7c0.1,0.3,0.2,1,0.5,2c0,0.2,0.1,0.5,0.3,0.9
			c0.1,0.4,0.3,0.9,0.5,1.6l0,0.1c0.1,0.4,0,0.6-0.2,0.7c-0.2,0-0.3-0.1-0.4-0.4c-0.5-1.2-0.9-1.8-1.2-2c-0.3-0.2-1-0.1-2.2,0.3
			l-0.9,0.3l1.6,5.8c0.1,0.4,0.3,0.6,0.6,0.6c0.1,0,0.4-0.1,0.9-0.2c0.3-0.1,0.4,0,0.5,0.1c0,0.1-0.1,0.2-0.3,0.3l-0.4,0.1
			c-0.1,0-0.4,0.1-0.7,0.2c-0.3,0.1-0.6,0.2-0.7,0.2l-2.3,0.6c-0.2,0.1-0.4,0.1-0.6,0.2c-0.2,0.1-0.3,0.1-0.3,0.1
			c-0.3,0.1-0.5,0.1-0.6-0.1c0-0.2,0.1-0.3,0.4-0.4c0.6-0.2,1-0.3,1-0.4c0.1-0.1,0-0.4-0.1-1l-2.9-10.5c-0.1-0.5-0.3-0.8-0.4-0.9
			c-0.1-0.1-0.5,0-1.1,0.1c-0.3,0.1-0.4,0-0.5-0.2c0-0.2,0.1-0.3,0.6-0.4l5.7-1.6c2.1-0.6,3.5-1,4.2-1.3l0.1,0.3l0.5,1.3l0.6,1.5
			C390.3,376.4,390.3,376.5,390.3,376.5z"/>
		<path fill="#FFFFFF" d="M404.2,372.7c0.1,0.3,0,0.4-0.2,0.5c-0.3,0.1-0.4-0.1-0.6-0.4c-0.3-0.8-0.6-1.4-1-1.8
			c-0.6-0.6-1.5-0.7-2.9-0.3c-0.2,0.1-0.5,0.2-0.9,0.3l3.3,12c0.1,0.4,0.5,0.5,1,0.4c0.6-0.1,0.9-0.1,0.9,0c0,0.1-0.1,0.3-0.4,0.4
			l-0.2,0.1c-0.2,0-0.5,0.1-0.8,0.2s-0.6,0.2-0.8,0.2c0,0-0.3,0.1-0.7,0.2s-1,0.3-1.6,0.4l-0.7,0.2c-0.4,0.1-0.6,0.1-0.7,0
			c0-0.1,0.3-0.3,0.9-0.5c0.2-0.1,0.4-0.1,0.5-0.2c0.1-0.1,0.2-0.2,0.2-0.4c0-0.2-0.2-0.7-0.4-1.5l-3-10.7c-1.6,0.4-2.5,0.9-2.9,1.3
			c-0.4,0.5-0.5,1.3-0.3,2.6c0.1,0.5,0,0.7-0.2,0.8c-0.2,0-0.3-0.2-0.5-0.6c-0.2-0.6-0.4-1.7-0.7-3.4l7-1.9c0.6-0.2,1.9-0.5,3.7-1.1
			c0.2,0,0.4-0.1,0.6-0.3l0.2,0.6l0.4,1l0.4,1.2l0.2,0.5C404.1,372.5,404.2,372.6,404.2,372.7z"/>
		<path fill="#FFFFFF" d="M431.6,368.6c0,0,0,0.3,0.2,0.8c0.2,1.1,0.5,2.3,0.8,3.4c0,0.1,0.1,0.4,0.3,0.7c0.1,0.4,0.3,0.8,0.4,1.3
			l0.1,0.3c0.1,0.3,0,0.4-0.1,0.5c-0.2,0-0.3-0.1-0.5-0.3c-0.5-0.6-0.9-1-1.2-1.1c-1.1,1.7-2.6,2.8-4.6,3.3c-2.9,0.8-5.6,0.5-8.1-1
			c-2.5-1.5-4.2-3.8-5-6.9c-0.9-3.1-0.7-5.9,0.5-8.4c1.2-2.5,3.2-4.1,6-4.9c1-0.3,1.8-0.4,2.5-0.4c0.7,0,1.5,0.1,2.5,0.4
			c0.5,0.1,0.9,0.2,1.1,0.1c0.2,0,0.3-0.3,0.4-0.6c0.1-0.6,0.2-1,0.4-1c0.2,0,0.3,0,0.3,0.2c0,0.1,0,0.2,0,0.4c0,1,0.4,2.8,1.2,5.5
			c0.1,0.4,0.1,0.6,0.1,0.7c0,0.1-0.1,0.1-0.2,0.2c-0.2,0.1-0.4-0.1-0.5-0.5c-0.7-1.5-1.4-2.6-2.1-3.2c-1.4-1.3-3.2-1.7-5.3-1.1
			c-1.6,0.4-2.7,1.3-3.4,2.7c-1.2,2.4-1.2,5.5-0.2,9.2c0.9,3.3,2.3,5.7,4.2,7.2c1.7,1.3,3.5,1.6,5.5,1c1-0.3,1.9-0.8,2.6-1.6
			c0.7-0.8,1.2-1.7,1.4-2.7c0.2-1,0.3-2.2,0.2-3.6c0-0.5,0-0.8,0.2-0.8C431.4,368.1,431.5,368.3,431.6,368.6z"/>
		<path fill="#FFFFFF" d="M458.2,368.1c0,0.2-0.1,0.3-0.6,0.4l-0.3,0.1c-0.3,0.1-0.8,0.2-1.5,0.4c-0.7,0.2-1.3,0.4-1.7,0.5
			c-0.6,0.2-1.3,0.4-2.1,0.6c-0.8,0.2-1.3,0.4-1.6,0.4l-0.2,0.1c-0.4,0.1-0.6,0.1-0.7-0.1c-0.1-0.2,0.2-0.4,0.8-0.5
			c1-0.3,1.6-0.6,1.8-0.8c0.1-0.1-0.1-0.8-0.4-2l-4.3-15.5c0,0,0,0.4-0.1,1.1c-0.1,2.6-0.3,6.6-0.5,11.8l-0.1,5.1
			c0,1-0.1,1.5-0.2,1.6c-0.1,0-0.4-0.2-0.6-0.6c-1.1-1.7-4-5.7-8.7-12.2l-2.1-2.9c0.1,0.4,0.2,0.9,0.4,1.6l2.7,9.7
			c1,3.6,1.6,5.5,1.6,5.5c0.2,0.2,0.7,0.2,1.5,0c0.7-0.2,1-0.2,1.1,0c0.1,0.2-0.1,0.4-0.5,0.5c-0.3,0.1-0.5,0.1-0.7,0.1
			c-0.3,0-0.5,0.1-0.8,0.1l-3.4,1.1c-0.4,0.1-0.6,0.1-0.6-0.1c-0.1-0.2,0.5-0.5,1.6-0.8c0.5-0.1,0.7-0.3,0.8-0.5
			c0-0.2-0.1-0.7-0.3-1.6l-4-14.3c-0.5-1.7-0.7-2.5-0.8-2.7c-0.2-0.3-0.4-0.4-0.7-0.4c-0.3,0-0.9,0-1.7,0.2c-0.3,0.1-0.5,0-0.6-0.1
			c-0.1-0.2,0.2-0.4,0.8-0.6c0.1,0,0.3-0.1,0.5-0.1l1.6-0.4c1.2-0.3,2-0.6,2.5-0.7c0.2,0.2,1.2,1.6,3,4.2c0.8,1.1,3,4.2,6.7,9.4
			c0-1.4,0.1-2.8,0.1-4.2l0.4-10.8c0-0.6,0.1-1.1,0.1-1.6l4.4-1.3c0.6-0.2,1-0.3,1.1-0.2c0.1,0,0.2,0.1,0.2,0.2
			c0.1,0.2-0.1,0.3-0.4,0.4c-0.6,0.2-0.9,0.3-1.1,0.4c-0.5,0.2-0.7,0.5-0.9,0.8c-0.1,0.2,0.2,1.3,0.8,3.5l3.9,13.9
			c0.2,0.8,0.4,1.2,0.6,1.3c0.3,0.1,1,0,2-0.3l0.2,0C457.9,367.9,458.2,368,458.2,368.1z"/>
		<path fill="#FFFFFF" d="M472.1,358.2c0.5,1.7,0.2,3.4-0.7,4.9c-1,1.6-2.4,2.6-4.2,3.1c-1.1,0.3-2.4,0.3-4.1,0.1
			c-0.4-0.1-0.8-0.1-1,0c-0.2,0.1-0.3,0.4-0.2,1c0.1,0.3,0,0.5-0.3,0.5c-0.2,0.1-0.3,0-0.4-0.3c0-0.2-0.1-0.3-0.1-0.4
			c-0.2-1.3-0.4-2.4-0.7-3.4c-0.1-0.2-0.2-0.8-0.5-1.7c-0.1-0.1-0.1-0.3-0.2-0.5c-0.1-0.3,0-0.5,0.2-0.5c0.2-0.1,0.4,0.1,0.6,0.6
			c1.5,3.4,3.7,4.8,6.5,4c1.2-0.3,2.1-0.9,2.5-1.8c0.5-0.9,0.5-1.9,0.2-3.2c-0.3-1.1-0.9-2-1.8-2.6c-0.9-0.6-2.2-1.1-4-1.4
			c-2.2-0.4-3.7-0.9-4.7-1.6c-1-0.7-1.7-1.7-2-2.9c-0.5-1.7-0.3-3.2,0.5-4.5c0.8-1.4,2-2.3,3.6-2.7c0.7-0.2,1.7-0.2,3-0.1
			c0.5,0,0.8,0,1,0c0.2-0.1,0.4-0.1,0.4-0.2c0-0.1,0.1-0.3,0-0.7c0-0.2,0.1-0.3,0.2-0.4c0.2-0.1,0.3,0,0.4,0.3
			c0,0.2,0.1,0.3,0.1,0.4c0.1,0.5,0.2,1.1,0.4,1.8c0.3,1,0.5,1.7,0.8,2.2l0.2,0.5c0.1,0.2,0,0.3-0.2,0.4c-0.2,0.1-0.4-0.1-0.6-0.6
			c-0.5-1.1-1.3-1.9-2.4-2.5c-1-0.6-2.1-0.7-3.1-0.4c-1,0.3-1.7,0.8-2.1,1.6c-0.4,0.8-0.5,1.7-0.2,2.8c0.4,1.3,1.1,2.2,2.1,2.7
			c0.6,0.3,1.8,0.6,3.6,1c2.1,0.4,3.7,1,4.8,1.7C471,356,471.7,357,472.1,358.2z"/>
	</g>
</g>
</svg>
